<?xml version="1.0" encoding="utf-8"?>
<svg width="2000px" height="1236px" viewBox="0 0 2000 1236" version="1.1" xmlns:xlink="http://www.w3.org/1999/xlink" xmlns="http://www.w3.org/2000/svg">
  <g id="Terminal">
    <path d="M0 0L2000 0L2000 1236L0 1236L0 0Z" id="Rectangle" fill="none" fill-rule="evenodd" stroke="none" />
    <path d="M568 419.6L856 419.6L856 293.6L604.8 293.6C584 295.195 568 311.144 568 330.284L568 419.6L568 419.6Z" id="Shape" fill="#E6E6E6" stroke="none" />
    <path d="M1144 293.6L856 293.6L856 419.6L1144 419.6L1144 293.6L1144 293.6Z" id="Shape" fill="#B3B3B3" stroke="none" />
    <path d="M1430.41 419.6L1144 419.6L1144 293.6L1395.4 293.6C1414.5 293.6 1432 309.549 1432 330.284L1432 419.6L1430.41 419.6Z" id="Shape" fill="#666666" stroke="none" />
    <path d="M1396.8 942.8L604.8 942.8C584 942.8 568 925.2 568 906L568 402L1432 402L1432 906C1432 925.2 1416 942.8 1396.8 942.8L1396.8 942.8Z" id="Shape" fill="#333333" stroke="none" />
    <path d="M841.6 622.8L683.2 781.2C673.6 790.8 673.6 802 683.2 810L715.2 842C724.8 851.6 737.6 851.6 744 842L902.4 683.6C912 674 912 661.2 902.4 654.8L870.4 622.8C864 616.4 849.6 616.4 841.6 622.8L841.6 622.8Z" id="Shape" fill="#999999" stroke="none" />
    <path d="M744 498L902.4 656.4C912 666 912 677.2 902.4 685.2L870.4 717.2C860.8 726.8 848 726.8 841.6 717.2L683.2 558.8C673.6 549.2 673.6 536.4 683.2 530L715.2 498C723.2 490 737.6 490 744 498L744 498Z" id="Shape" fill="#CCCCCC" stroke="none" />
    <path d="M744 498L902.4 656.4C912 666 912 677.2 902.4 685.2L870.4 717.2C860.8 726.8 848 726.8 841.6 717.2L683.2 558.8C673.6 549.2 673.6 536.4 683.2 530L715.2 498C723.2 490 737.6 490 744 498L744 498Z" id="Shape" fill="#CCCCCC" stroke="none" />
    <path d="M1022.4 848.4L961.6 848.4C950.4 848.4 942.4 840.4 942.4 829.2L942.4 790.8C942.4 779.6 950.4 771.6 961.6 771.6L1022.4 771.6C1033.6 771.6 1041.6 779.6 1041.6 790.8L1041.6 829.2C1041.6 840.4 1032 848.4 1022.4 848.4L1022.4 848.4Z" id="Shape" fill="#E6E6E6" stroke="none" />
    <path d="M1184 848.4L1123.2 848.4C1112 848.4 1104 840.4 1104 829.2L1104 790.8C1104 779.6 1112 771.6 1123.2 771.6L1184 771.6C1195.2 771.6 1203.2 779.6 1203.2 790.8L1203.2 829.2C1203.2 840.4 1193.6 848.4 1184 848.4L1184 848.4Z" id="Shape" fill="#B3B3B3" stroke="none" />
    <path d="M1345.6 848.4L1284.8 848.4C1273.6 848.4 1265.6 840.4 1265.6 829.2L1265.6 790.8C1265.6 779.6 1273.6 771.6 1284.8 771.6L1345.6 771.6C1356.8 771.6 1364.8 779.6 1364.8 790.8L1364.8 829.2C1364.8 840.4 1356.8 848.4 1345.6 848.4L1345.6 848.4Z" id="Shape" fill="#666666" stroke="none" />
  </g>
</svg>